<mxfile host="drawio-plugin" modified="2023-05-04T06:24:38.350Z" agent="5.0 (Windows NT 6.2; Win64; x64) AppleWebKit/537.36 (KHTML, like Gecko) Chrome/104.0.5112.102 Safari/537.36" version="20.5.3" etag="I4hSfHvCTkPOLoXkRWuo" type="embed"><diagram name="第 1 页" id="B39U93lkh4IAyy0syTNY"><mxGraphModel dx="1392" dy="760" grid="1" gridSize="10" guides="1" tooltips="1" connect="1" arrows="1" fold="1" page="1" pageScale="1" pageWidth="827" pageHeight="1169" math="0" shadow="0"><root><mxCell id="0"/><mxCell id="1" parent="0"/><mxCell id="5" style="edgeStyle=orthogonalEdgeStyle;rounded=1;hachureGap=4;jiggle=2;orthogonalLoop=1;jettySize=auto;html=1;exitX=1;exitY=0.5;exitDx=0;exitDy=0;entryX=0;entryY=0.5;entryDx=0;entryDy=0;fontFamily=Architects Daughter;fontSource=https%3A%2F%2Ffonts.googleapis.com%2Fcss%3Ffamily%3DArchitects%2BDaughter;fontSize=16;sketch=1;" edge="1" parent="1" source="Zb80IJXPbhG4xEGnPv9e-1" target="2"><mxGeometry relative="1" as="geometry"/></mxCell><mxCell id="6" style="edgeStyle=orthogonalEdgeStyle;rounded=0;sketch=1;hachureGap=4;jiggle=2;orthogonalLoop=1;jettySize=auto;html=1;exitX=0.75;exitY=1;exitDx=0;exitDy=0;entryX=0.75;entryY=0;entryDx=0;entryDy=0;fontFamily=Architects Daughter;fontSource=https%3A%2F%2Ffonts.googleapis.com%2Fcss%3Ffamily%3DArchitects%2BDaughter;fontSize=16;" edge="1" parent="1" source="Zb80IJXPbhG4xEGnPv9e-1" target="Zb80IJXPbhG4xEGnPv9e-2"><mxGeometry relative="1" as="geometry"/></mxCell><mxCell id="Zb80IJXPbhG4xEGnPv9e-1" value="" style="rounded=1;whiteSpace=wrap;html=1;curveFitting=1;jiggle=2;fillColor=#21C0A5;strokeColor=#006658;fontColor=#5C5C5C;sketch=1;" parent="1" vertex="1"><mxGeometry x="200" y="70" width="120" height="60" as="geometry"/></mxCell><mxCell id="Zb80IJXPbhG4xEGnPv9e-2" value="" style="rounded=1;whiteSpace=wrap;html=1;curveFitting=1;jiggle=2;fillColor=#21C0A5;strokeColor=#006658;fontColor=#5C5C5C;sketch=1;" parent="1" vertex="1"><mxGeometry x="200" y="270" width="120" height="60" as="geometry"/></mxCell><mxCell id="2" value="" style="shape=document;whiteSpace=wrap;html=1;boundedLbl=1;hachureGap=4;jiggle=2;curveFitting=1;fontFamily=Architects Daughter;fontSource=https%3A%2F%2Ffonts.googleapis.com%2Fcss%3Ffamily%3DArchitects%2BDaughter;fontSize=20;fillColor=#21C0A5;strokeColor=#006658;fontColor=#5C5C5C;rounded=1;sketch=1;" parent="1" vertex="1"><mxGeometry x="530" y="60" width="120" height="80" as="geometry"/></mxCell></root></mxGraphModel></diagram></mxfile>